<svg xmlns="http://www.w3.org/2000/svg" viewBox="0 0 512 512">
  <defs>
    <linearGradient id="g1" x1="0%" y1="0%" x2="100%" y2="100%">
      <stop offset="0%" stop-color="#161879"/>
      <stop offset="100%" stop-color="#213ca9"/>
    </linearGradient>
    <linearGradient id="g2" x1="0%" y1="0%" x2="100%" y2="100%">
      <stop offset="0%" stop-color="#1a2690"/>
      <stop offset="55%" stop-color="#19288e"/>
      <stop offset="100%" stop-color="#2958d0"/>
    </linearGradient>
    <linearGradient id="g3" x1="100%" y1="100%" x2="0%" y2="0%">
      <stop offset="0%" stop-color="#1752db"/>
      <stop offset="100%" stop-color="#39d7eb"/>
    </linearGradient>
    <linearGradient id="g4" x1="100%" y1="0%" x2="0%" y2="100%">
      <stop offset="0%" stop-color="#2957cf"/>
      <stop offset="36%" stop-color="#2851c7"/>
      <stop offset="100%" stop-color="#19288e"/>
    </linearGradient>
  </defs>
  <g transform="translate(35, 80) scale(0.22)">
    <path fill="url(#g3)" d="M 1228.58 34.152 C 1260.91 21.01 1334.08 12.645 1369.26 11.497 C 1524.77 6.425 1748.64 29.582 1889.4 117.206 C 1952.51 156.495 2006.09 213.163 2028.69 298.252 C 2048.5 372.809 2035.32 454.483 2007.15 522.879 C 1976.65 596.91 1930.01 659.469 1881.97 716.673 C 1807.68 805.118 1723.27 880.309 1635.63 947.22 C 1450.65 1088.46 1250.66 1192.4 1044.12 1275.14 C 1018.56 1285.14 992.867 1294.58 967.052 1303.5 C 959.439 1306.18 936.139 1314.78 929.378 1315.85 C 908.732 1325.1 881.329 1333.19 859.93 1339.96 C 842.793 1345.39 815.685 1354.58 798.44 1357.33 C 782.481 1363.26 746.857 1369.69 729.131 1374.19 C 682.744 1385.95 634.498 1397.58 587.607 1405.1 C 585.547 1404.65 584.809 1404.17 582.883 1403.23 C 586.783 1399.7 587.617 1398.75 588.086 1393.11 C 586.257 1390.41 584.544 1390.88 581.099 1390.13 C 578.322 1379.56 588.559 1375.64 573.987 1366.52 C 571.149 1364.74 575.154 1349.31 574.541 1346.93 C 571.975 1336.97 570.156 1334.47 570.776 1323.32 C 569.423 1319.51 561.987 1311.72 559.082 1308.39 C 559.105 1304.93 563.067 1305.18 565.282 1300.95 C 567.355 1297 566.836 1286.01 568.193 1282.46 C 574.092 1267.02 584.946 1257.01 582.364 1237.91 C 581.788 1235.01 581.716 1229.87 579.331 1228.37 C 570.699 1222.95 570.084 1217.21 565.796 1206.73 C 559.013 1204.48 555.776 1212.9 546.708 1210.99 C 554.373 1206.45 572.724 1198.6 581.175 1194.76 C 597.623 1187.3 616.025 1177.82 632.425 1171.35 C 633.279 1170.48 636.399 1168.98 637.6 1168.35 C 878.034 1055.57 1349.49 792.958 1500.48 545.773 C 1509.02 531.798 1542.6 473.116 1541.08 459.649 L 1543.94 457.9 C 1544.92 442.086 1543.96 423.327 1542.88 407.429 C 1536.76 316.611 1514.94 227.207 1470.71 153.439 C 1426.87 80.294 1356.45 36.23 1283.48 29.729 C 1273.99 28.883 1236.83 37.788 1228.58 34.152 Z"/>
    <path fill="url(#g2)" d="M 1541.08 459.649 L 1543.94 457.9 C 1542.47 537.794 1535.86 596.444 1516.16 673.995 C 1435.1 993.051 1184.21 1186.39 941.572 1291.07 C 915.762 1302.21 890.795 1314.98 865.002 1325.99 C 865.043 1325.97 864.219 1334.61 864.003 1336.1 C 874.745 1331.98 921.028 1315.22 929.378 1315.85 C 908.732 1325.1 881.329 1333.19 859.93 1339.96 C 842.793 1345.39 815.685 1354.58 798.44 1357.33 C 782.481 1363.26 746.857 1369.69 729.131 1374.19 C 682.744 1385.95 634.498 1397.58 587.607 1405.1 C 585.547 1404.65 584.809 1404.17 582.883 1403.23 C 586.783 1399.7 587.617 1398.75 588.086 1393.11 C 586.257 1390.41 584.544 1390.88 581.099 1390.13 C 578.322 1379.56 588.559 1375.64 573.987 1366.52 C 571.149 1364.74 575.154 1349.31 574.541 1346.93 C 571.975 1336.97 570.156 1334.47 570.776 1323.32 C 569.423 1319.51 561.987 1311.72 559.082 1308.39 C 559.105 1304.93 563.067 1305.18 565.282 1300.95 C 567.355 1297 566.836 1286.01 568.193 1282.46 C 574.092 1267.02 584.946 1257.01 582.364 1237.91 C 581.788 1235.01 581.716 1229.87 579.331 1228.37 C 570.699 1222.95 570.084 1217.21 565.796 1206.73 C 559.013 1204.48 555.776 1212.9 546.708 1210.99 C 554.373 1206.45 572.724 1198.6 581.175 1194.76 C 597.623 1187.3 616.025 1177.82 632.425 1171.35 C 633.279 1170.48 636.399 1168.98 637.6 1168.35 C 878.034 1055.57 1349.49 792.958 1500.48 545.773 C 1509.02 531.798 1542.6 473.116 1541.08 459.649 Z"/>
    <path fill="url(#g4)" d="M 1197.28 43.195 C 1233.15 28.737 1273.99 28.883 1283.48 29.729 C 1356.45 36.23 1426.87 80.294 1470.71 153.439 C 1514.94 227.207 1536.76 316.611 1542.88 407.429 C 1543.96 423.327 1544.92 442.086 1543.94 457.9 L 1541.08 459.649 C 1537.37 457.456 1530.71 451.398 1527.14 448.419 C 1435.98 372.204 1324.17 389.207 1226.16 430.258 C 1211 439.316 1195.01 446.857 1179.99 456.219 C 1053.83 534.855 956.333 667.722 861.73 794.623 L 720.431 982.667 C 722.648 945.833 730.113 893.3 736.129 857.047 C 758.189 721.262 795.024 589.786 845.63 466.197 C 884.681 369.77 943.046 270.113 1005.73 195.769 C 1055.22 137.061 1132.18 69.998 1197.28 43.195 Z"/>
    <path fill="url(#g1)" d="M 1390.61 288.455 C 1426.59 82.081 1349.73 47.957 1350.02 48.122 C 1383.9 66.633 1441.41 104.558 1470.71 153.439 C 1514.94 227.207 1536.76 316.611 1542.88 407.429 C 1543.96 423.327 1544.92 442.086 1543.94 457.9 L 1541.08 459.649 C 1537.37 457.456 1530.71 451.398 1527.14 448.419 C 1475.83 405.516 1414.33 390.381 1356.08 394.217 C 1371.53 360.111 1380.69 345.285 1390.61 288.455 Z"/>
    <path fill="#2858d0" d="M 546.708 1210.99 C 555.776 1212.9 559.013 1204.48 565.796 1206.73 C 570.084 1217.21 570.699 1222.95 579.331 1228.37 C 581.716 1229.87 581.788 1235.01 582.364 1237.91 C 584.946 1257.01 574.092 1267.02 568.193 1282.46 C 566.836 1286.01 567.355 1297 565.282 1300.95 C 563.067 1305.18 559.105 1304.93 559.082 1308.39 C 561.987 1311.72 569.423 1319.51 570.776 1323.32 C 570.156 1334.47 571.975 1336.97 574.541 1346.93 C 575.154 1349.31 571.149 1364.74 573.987 1366.52 C 588.559 1375.64 578.322 1379.56 581.099 1390.13 C 584.544 1390.88 586.257 1390.41 588.086 1393.11 C 587.617 1398.75 586.783 1399.7 582.883 1403.23 C 584.809 1404.17 585.547 1404.65 587.607 1405.1 C 562.281 1410.69 536.818 1413.39 511.299 1417.16 C 403.687 1432.77 295.304 1438.79 186.991 1435.18 C 146.65 1433.54 105.87 1431.39 65.63 1427.51 C 47.538 1425.76 29.729 1423.52 11.584 1422.33 C 45.904 1407.15 100.828 1388.88 136.752 1375.94 C 187.357 1357.49 237.789 1338.35 288.042 1318.48 C 342.024 1297.87 395.702 1276.05 449.05 1253.04 C 479.359 1240.07 516.779 1222.33 546.708 1210.99 Z"/>
  </g>
</svg>
